<?xml version="1.0" encoding="UTF-8" standalone="no"?>
<svg
   version="1.1"
   viewBox="0 0 749.96259 749.78998"
   id="svg354"
   sodipodi:docname="lpk.svg"
   width="749.96259"
   height="749.78998"
   inkscape:version="1.3 (0e150ed6c4, 2023-07-21)"
   xmlns:inkscape="http://www.inkscape.org/namespaces/inkscape"
   xmlns:sodipodi="http://sodipodi.sourceforge.net/DTD/sodipodi-0.dtd"
   xmlns="http://www.w3.org/2000/svg"
   xmlns:svg="http://www.w3.org/2000/svg"
   xmlns:rdf="http://www.w3.org/1999/02/22-rdf-syntax-ns#"
   xmlns:cc="http://creativecommons.org/ns#"
   xmlns:dc="http://purl.org/dc/elements/1.1/">
  <metadata
     id="metadata360">
    <rdf:RDF>
      <cc:Work
         rdf:about="">
        <dc:format>image/svg+xml</dc:format>
        <dc:type
           rdf:resource="http://purl.org/dc/dcmitype/StillImage" />
      </cc:Work>
    </rdf:RDF>
  </metadata>
  <defs
     id="defs358" />
  <sodipodi:namedview
     inkscape:document-rotation="0"
     pagecolor="#ffffff"
     bordercolor="#666666"
     borderopacity="1"
     objecttolerance="10"
     gridtolerance="10"
     guidetolerance="10"
     inkscape:pageopacity="0"
     inkscape:pageshadow="2"
     inkscape:window-width="1366"
     inkscape:window-height="705"
     id="namedview356"
     showgrid="false"
     fit-margin-top="0"
     fit-margin-left="0"
     fit-margin-right="0"
     fit-margin-bottom="0"
     inkscape:zoom="0.38530466"
     inkscape:cx="663.11163"
     inkscape:cy="582.65581"
     inkscape:window-x="-8"
     inkscape:window-y="-8"
     inkscape:window-maximized="1"
     inkscape:current-layer="svg354"
     inkscape:showpageshadow="2"
     inkscape:pagecheckerboard="0"
     inkscape:deskcolor="#d1d1d1" />
  <g
     stroke-width="2"
     fill="none"
     stroke-linecap="butt"
     id="g244"
     transform="translate(-0.21,-0.21)">
    <path
       stroke="#ec282a"
       vector-effect="non-scaling-stroke"
       d="m 28.46,314.75 -3.17,-0.08 a 1.47,1.21 3.5 0 0 -1.47,1.06 l -1.84,14.83 a 0.62,0.61 12.9 0 0 0.43,0.67 q 1.6,0.53 3.34,0.31"
       id="path186" />
    <path
       stroke="#77191c"
       vector-effect="non-scaling-stroke"
       d="m 25.75,331.54 q -14.93,113.72 37.44,213.73 4.64,8.86 9.82,17.42 43.88,72.53 114.18,116.62 75.14,47.14 161.31,53.44 114.06,8.34 211.71,-51.01 8.62,-5.24 16.75,-10.93 64.93,-45.42 104.81,-113.91 5.01,-8.61 9.49,-17.61 48.59,-97.67 34.49,-207.5"
       id="path188" />
    <path
       stroke="#ec282a"
       vector-effect="non-scaling-stroke"
       d="m 725.75,331.79 7.97,-0.21 a 1.34,1.23 -3.8 0 0 1.31,-1.37 l -1.61,-14.26 a 1.41,1.3 -3.2 0 0 -1.4,-1.16 l -9.09,0.08"
       id="path190" />
    <path
       stroke="#77191c"
       vector-effect="non-scaling-stroke"
       d="M 722.93,314.87 Q 708.22,238.38 664.06,176.19 617.76,110.97 546.94,71.31 471.6,29.12 383.25,27.1 q -10.06,-0.23 -19.99,0.13 -60.98,2.2 -116.51,24.02 -77.19,30.34 -133.69,92.81 -65.6,72.55 -84.6,170.69"
       id="path192" />
    <path
       stroke="#750f0f"
       vector-effect="non-scaling-stroke"
       d="M 722.93,314.87 562,315 a 0.41,0.4 -83.2 0 1 -0.39,-0.5 q 6.9,-27.68 13.89,-55 2.06,-8.05 6.19,-19.56 2.89,-8.07 6.45,-13.69 5.46,-8.62 12.57,-16.05 7.57,-7.9 17.93,-8.09 6.94,-0.13 10.67,1.08 6.11,1.98 7.13,9.56 a 1.44,1.38 -33.4 0 1 -0.21,0.92 q -3.06,4.8 -6,9.67 -5.14,8.5 -5.94,10.27 -4.5,9.96 -1.23,20.83 0.73,2.4 1.11,3.97 0.67,2.75 1.22,3.93 4.89,10.33 15.3,13.3 5.61,1.6 13.2,1.57 6.72,-0.03 13.28,-2.09 11.65,-3.65 17.77,-14.18 3.94,-6.8 4.66,-15.58 0.51,-6.29 0.52,-9.69 0.03,-5.38 -1.87,-9.67 -8.29,-18.71 -26.16,-30.55 -2.96,-1.96 -7.09,-3.77 -3.69,-1.62 -7.39,-3.19 -11.35,-4.79 -23.38,-5.04 -9.21,-0.2 -19.9,1.68 -11.54,2.03 -22.83,7.37 -17.08,8.07 -28.06,17.69 -9.11,7.96 -24.33,24.68 -21.22,23.31 -32.69,52.7 -5.15,13.18 -8.75,26.93 a 0.67,0.66 -82.6 0 1 -0.64,0.5 q -44.52,0 -88.79,0 -4.71,0 -9.37,-0.99 -15.23,-3.26 -18.87,-3.76 -35.56,-4.93 -66.33,13.65 -6.48,3.91 -11.72,9.03 -4.98,4.88 -10.01,11.01 -8.02,9.77 -11.89,20.54 -3.66,10.18 -5.35,20.82 -0.8,5.09 -0.19,10.43 1.4,12.23 4.55,21.71 3.36,10.08 9.39,18.83 3.32,4.82 6.55,9.71 5.12,7.76 11.94,14.08 5.96,5.53 25.47,26.62 0.05,0.06 8.67,9.17 8.79,9.31 16.68,19.41 1.21,1.54 3.86,4.14 2.4,2.36 3.44,4.54 7.36,15.42 4.46,31.69 -1.34,7.48 -5.14,12.26 -4.98,6.26 -13.32,9.67 -14.14,5.8 -27.81,4.44 -8.36,-0.83 -20.67,-4.36 -4.83,-1.39 -7.38,-2.95 -3.61,-2.2 -6.01,-5.38 -7.3,-9.65 -5.68,-21.76 0.09,-0.64 1.26,-5.54 0.66,-2.79 0.88,-5.65 0.19,-2.39 0.45,-3.68 0.58,-2.88 0.96,-3.62 5.84,-11.38 0.65,-21.88 -2.23,-4.51 -4.9,-7.91 -3.03,-3.87 -7.37,-5.96 -15.43,-7.42 -30.68,0.92 -5.25,2.86 -9.86,6.66 -8.01,6.6 -7.74,17.11 0.09,3.5 0.18,7 0.16,6.07 -4.28,10.06 -5.61,5.05 -11.31,10.01 -1.89,1.64 -6.33,6.02 -3.56,3.51 -6.73,5.6 -11.81,7.76 -24.25,0.12 -4.7,-2.88 -6.35,-8.03 -1.24,-3.86 -0.24,-9.11 0.73,-3.87 2.34,-8.98 8.93,-28.46 17.78,-56.95 2.77,-8.91 5.83,-19.14 20.88,-69.81 42.65,-139.19 a 0.31,0.31 -81.2 0 0 -0.3,-0.41 q -98.4,0 -196.4,0 -0.97,0 -1.29,-0.25"
       id="path194" />
    <path
       stroke="#750f0f"
       vector-effect="non-scaling-stroke"
       d="m 725.75,331.79 q -0.49,-0.29 -1.75,-0.29 -82.5,0 -164.98,0 a 0.5,0.5 -82.4 0 0 -0.48,0.37 q -11.16,41.29 -21.89,82.56 -11.27,43.33 -25.47,85.8 -18.13,54.18 -43.79,105.19 -3.79,7.54 -8.36,13.94 -15.06,21.08 -32.77,39.99 -6.45,6.89 -13.02,11.7 -26.72,19.57 -57.8,26.64 -15.98,3.63 -32.51,-0.13 -9.9,-2.25 -17.36,-7.3 -7.93,-5.37 -13.91,-13.17 -7.3,-9.53 -9.26,-21.07 -0.99,-5.83 0.36,-11.98 1.42,-6.47 4.05,-11.48 11.21,-21.28 36.43,-19.48 6.47,0.46 12.01,2.67 8.46,3.38 12.28,10.95 2.59,5.14 2.23,10.94 -0.37,5.96 -3.6,11.01 -0.46,0.72 -5.66,6.42 -4.87,5.34 -6.69,11.49 -3.07,10.38 6.38,16.17 3.7,2.26 8.06,2.25 10.74,-0.02 19.89,-5.54 9.73,-5.87 18.71,-12.82 6.23,-4.82 10.89,-11.01 3.69,-4.91 7.29,-13.45 5.24,-12.4 7.66,-22.22 Q 448.08,476.25 483.37,332 a 0.41,0.4 -83.2 0 0 -0.39,-0.5 h -58.84 q -1.67,0 -0.19,0.76 15.64,8.02 17.63,25.36 0.17,1.51 0.04,3.76 -0.11,1.9 -0.14,3.79 -0.04,3.93 -0.29,5.65 -2.09,14.35 -13.75,22.62 -5.15,3.65 -11.61,4.67 -4.61,0.72 -10.68,0.46 -5.98,-0.26 -10.59,-2.13 -13.68,-5.56 -14.18,-21.44 -0.3,-9.59 3.43,-21.19 2.65,-8.24 -2.65,-14.95 -2.74,-3.45 -5.19,-7.11 -1.76,-2.63 -4.28,-3.94 -12.56,-6.5 -26.88,-4 -6.56,1.15 -11.68,5.23 -4.81,3.82 -8.53,9.11 -2.79,3.98 -4.14,8.68 -1.24,4.35 -0.48,9.41 1.11,7.35 4.45,13.91 2.37,4.66 8.61,11.51 28.36,31.13 52.52,55.03 12.57,12.43 21.64,26.11 6.11,9.22 9.25,17.67 9.93,26.77 0.04,55.79 -0.33,0.96 -0.95,1.76 -10.46,13.45 -20.77,26.57 -0.06,0.07 -0.98,1.36 -1.23,1.71 -3.23,3.11 -28.45,19.96 -62.41,23.17 -10.18,0.96 -16.31,0.99 -7.98,0.06 -16.34,-1.47 -29.29,-5.35 -53.14,-21.88 -13.13,-9.11 -22.63,-22.66 a 0.34,0.34 45.9 0 0 -0.55,-0.01 q -11.07,14.54 -25.91,24.79 -9,6.22 -17.26,10.08 -12.54,5.85 -26.47,7.34 -3.55,0.38 -7.94,1.43 -17.2,4.09 -31.79,-4.9 -24.65,-15.2 -24.31,-45.69 0.05,-4.44 1.25,-8.7 27.81,-99.64 55.57,-199.56 a 0.38,0.38 8 0 0 -0.37,-0.49 l -116.2,0.04"
       id="path196" />
    <path
       stroke="#7f7f7f"
       vector-effect="non-scaling-stroke"
       d="m 181.56,292.92 q 2.12,1.94 5.44,2.33 8.02,0.95 13.82,-3.99 a 1.1,1.06 70.6 0 0 0.38,-0.83 l 0.04,-10.91 a 0.5,0.5 -0.1 0 0 -0.51,-0.51 l -10.42,0.04 a 0.53,0.51 -0.6 0 0 -0.52,0.51 l -0.03,4.68 a 0.52,0.51 0 0 0 0.52,0.51 q 1.47,0 2.45,-0.15 2.58,-0.41 2.05,2.03 a 2.45,2.45 -4.6 0 1 -1.49,1.75 q -7.16,2.87 -8.75,-3.99 -0.87,-3.82 -0.01,-7.63 0.7,-3.12 3.69,-3.97 3.62,-1.03 5.4,2.45 a 0.68,0.66 70 0 0 0.74,0.36 l 5.91,-1.29 a 0.61,0.59 77.1 0 0 0.44,-0.73 q -1.55,-6.56 -8.45,-7.2 -11.68,-1.1 -14.66,8.04 -1.6,4.93 -0.93,9.6 0.75,5.12 4.89,8.9"
       id="path198" />
    <path
       stroke="#7f7f7f"
       vector-effect="non-scaling-stroke"
       d="m 152.94,293.06 q 4.42,3.73 11.32,1.98 6.09,-1.54 7.99,-7.54 1.72,-5.45 0.53,-11.05 -2.33,-10.96 -13.78,-9.97 -6.3,0.55 -9.08,6.14 -2.1,4.22 -1.67,10.38 0.46,6.5 4.69,10.06"
       id="path200" />
    <path
       stroke="#7f7f7f"
       vector-effect="non-scaling-stroke"
       d="m 76.3,273.82 6.51,-0.22 a 0.58,0.55 -0.6 0 0 0.56,-0.54 l 0.08,-5.52 a 0.84,0.78 0.3 0 0 -0.84,-0.79 H 61.07 a 0.53,0.5 -0.5 0 0 -0.53,0.51 l 0.09,5.8 a 0.56,0.56 90 0 0 0.55,0.55 l 6.45,0.11 a 0.63,0.6 0.5 0 1 0.62,0.6 v 20.14 a 0.53,0.52 90 0 0 0.52,0.53 l 6.42,-0.04 a 0.51,0.5 -90 0 0 0.5,-0.51 l 0.12,-20.12 a 0.5,0.5 -0.6 0 1 0.49,-0.5"
       id="path202" />
    <path
       stroke="#7f7f7f"
       vector-effect="non-scaling-stroke"
       d="m 104,282.33 q 6.83,-3.72 4.38,-10.83 -0.66,-1.91 -1.94,-3.02 Q 104.85,267.1 103,267 95.76,266.59 87.64,266.77 A 0.65,0.65 -0.4 0 0 87,267.42 v 27.08 a 0.5,0.5 0 0 0 0.5,0.5 h 6.36 a 0.69,0.66 -89.6 0 0 0.66,-0.68 l 0.14,-10.13 a 0.58,0.58 -2.7 0 1 0.53,-0.58 q 1.67,-0.19 2.25,0.95 2.49,4.95 4.91,9.93 a 0.81,0.78 76.7 0 0 0.71,0.46 l 7.23,0.05 a 0.43,0.43 78.1 0 0 0.39,-0.61 q -2.05,-4.5 -3.99,-8.58 -0.69,-1.44 -2.72,-2.95 a 0.32,0.31 49 0 1 0.03,-0.53"
       id="path204" />
    <path
       stroke="#7f7f7f"
       vector-effect="non-scaling-stroke"
       d="m 121.25,267.02 a 0.27,0.27 0 0 0 -0.27,-0.27 h -6.96 a 0.27,0.27 0 0 0 -0.27,0.27 v 27.72 a 0.27,0.27 0 0 0 0.27,0.27 h 6.96 a 0.27,0.27 0 0 0 0.27,-0.27 v -27.72"
       id="path206" />
    <path
       stroke="#7f7f7f"
       vector-effect="non-scaling-stroke"
       d="m 134.31,287.43 -0.06,-20.13 a 0.55,0.55 0 0 0 -0.55,-0.55 h -6.39 a 0.56,0.56 0 0 0 -0.56,0.56 v 27.17 a 0.52,0.51 90 0 0 0.51,0.52 l 18.18,-0.06 a 0.53,0.48 -0.5 0 0 0.53,-0.49 l -0.1,-5.76 a 0.57,0.49 0.7 0 0 -0.55,-0.48 l -10.51,-0.22 a 0.56,0.52 -88.9 0 1 -0.5,-0.56"
       id="path208" />
    <path
       stroke="#7f7f7f"
       vector-effect="non-scaling-stroke"
       d="m 213.75,267.07 a 0.31,0.31 0 0 0 -0.31,-0.31 h -6.88 a 0.31,0.31 0 0 0 -0.31,0.31 v 27.62 a 0.31,0.31 0 0 0 0.31,0.31 h 6.88 a 0.31,0.31 0 0 0 0.31,-0.31 v -27.62"
       id="path210" />
    <path
       stroke="#7f7f7f"
       vector-effect="non-scaling-stroke"
       d="m 244.54,294.75 7.77,0.12 a 0.75,0.62 -79.1 0 0 0.64,-0.53 l 1.07,-3.43 a 0.76,0.69 -80.4 0 1 0.66,-0.52 l 7.22,-0.09 a 1.38,1.05 80.3 0 1 1.11,1.03 l 0.85,3.15 a 0.76,0.62 -5.7 0 0 0.71,0.47 l 6.49,0.04 a 0.42,0.42 81.4 0 0 0.4,-0.55 l -8.74,-27.03 a 0.73,0.68 80.7 0 0 -0.66,-0.51 l -7.25,-0.11 a 0.71,0.65 -80 0 0 -0.65,0.5 q -4.07,12.63 -8.1,25.27 -0.42,1.33 -1.06,1.65"
       id="path212" />
    <path
       stroke="#7f7f7f"
       vector-effect="non-scaling-stroke"
       d="m 245,294.21 q -4.93,-7.98 -8.97,-16.44 a 0.82,0.75 53.4 0 1 0.09,-0.84 l 7.85,-9.28 q 0.76,-0.9 -0.4,-0.9 h -8.22 a 1.34,1.3 -71 0 0 -1.05,0.53 l -7.18,9.53 q -0.37,0.49 -0.37,-0.13 v -9.39 a 0.53,0.52 90 0 0 -0.52,-0.53 l -6.42,0.04 a 0.51,0.5 -90 0 0 -0.5,0.51 v 27.13 a 0.52,0.51 -89.4 0 0 0.5,0.52 l 5.69,0.02 a 1.45,1.41 84.8 0 0 1.39,-1.71 q -1,-5.35 3.5,-9.11 a 0.45,0.45 -31.8 0 1 0.7,0.16 l 4.4,10.04 a 0.84,0.72 76.5 0 0 0.7,0.51 l 8.35,-0.12"
       id="path214" />
    <path
       stroke="#fefefe"
       vector-effect="non-scaling-stroke"
       d="m 245,294.21 q -0.4,0.14 -0.46,0.54"
       id="path216" />
    <path
       stroke="#7f7f7f"
       vector-effect="non-scaling-stroke"
       d="m 293.81,283.06 10.37,-0.12 a 0.53,0.5 0 0 0 0.53,-0.5 l 0.02,-4.43 a 0.77,0.75 0.4 0 0 -0.77,-0.76 h -10.13 a 0.78,0.78 -80.2 0 1 -0.73,-1.04 q 0.43,-1.21 0,-2.43 a 0.77,0.77 80.1 0 1 0.72,-1.03 h 11.41 a 0.52,0.52 0 0 0 0.52,-0.52 v -4.95 a 0.52,0.52 0 0 0 -0.52,-0.52 l -19.05,0.16 a 0.51,0.49 90 0 0 -0.49,0.51 l 0.05,27.08 a 0.43,0.43 0 0 0 0.43,0.43 h 19.52 a 0.53,0.49 -1 0 0 0.53,-0.51 l -0.2,-5.18 a 0.58,0.52 -1 0 0 -0.58,-0.5 l -11.5,-0.16 a 0.61,0.52 0.1 0 1 -0.6,-0.51 l -0.1,-4.52 a 0.57,0.49 -0.5 0 1 0.57,-0.5"
       id="path218" />
    <path
       stroke="#7f7f7f"
       vector-effect="non-scaling-stroke"
       d="m 327.78,268.5 q -2.73,-1.79 -6.03,-1.78 -5.13,0.03 -10.78,0.03 a 0.54,0.53 90 0 0 -0.53,0.54 v 27.02 a 0.54,0.54 2.3 0 0 0.5,0.54 q 8.61,0.62 12.81,-0.1 6.54,-1.12 8.23,-7.51 1.88,-7.08 -0.51,-13.98 -1.04,-3.02 -3.69,-4.76"
       id="path220" />
    <path
       stroke="#7f7f7f"
       vector-effect="non-scaling-stroke"
       d="m 344.53,294.91 q 2.84,0.73 6.22,0.34 4.99,-0.58 7.39,-3.96 1.59,-2.24 1.9,-7.43 0.46,-7.67 0.16,-16.2 a 0.92,0.9 88.7 0 0 -0.91,-0.89 l -5.98,0.02 a 0.52,0.51 89.4 0 0 -0.5,0.52 q -0.11,8.6 -0.21,17.19 -0.04,3.53 -2.85,4.25 -2.88,0.74 -4.35,-1.2 -0.88,-1.16 -0.97,-3.82 -0.28,-8.21 -0.25,-16.42 a 0.52,0.49 -90 0 0 -0.5,-0.53 l -6.25,0.11 a 0.55,0.5 89.5 0 0 -0.49,0.55 q 0.11,8.66 0.16,17.31 0.03,4.12 2.36,6.98 1.92,2.36 5.07,3.18"
       id="path222" />
    <path
       stroke="#7f7f7f"
       vector-effect="non-scaling-stroke"
       d="m 371.19,274.32 0.06,20.01 a 0.67,0.67 0 0 0 0.67,0.67 h 6.28 a 0.55,0.55 0 0 0 0.55,-0.55 l 0.06,-20.13 a 0.52,0.5 -90 0 1 0.5,-0.52 l 6.61,-0.05 a 0.54,0.49 -0.5 0 0 0.54,-0.5 l -0.09,-5.81 a 0.56,0.53 0 0 0 -0.55,-0.52 l -21.57,-0.16 a 0.7,0.69 89.6 0 0 -0.69,0.71 l 0.12,5.59 a 0.55,0.52 -89.5 0 0 0.5,0.54 l 6.51,0.21 a 0.52,0.51 1.2 0 1 0.5,0.51"
       id="path224" />
    <path
       stroke="#7f7f7f"
       vector-effect="non-scaling-stroke"
       d="m 402.47,290.72 q 1.01,1.57 1.28,3.48 a 0.7,0.68 89.8 0 0 0.56,0.58 q 3.34,0.56 6.7,0.05 a 0.43,0.43 -13.8 0 0 0.34,-0.56 l -8.44,-26.54 a 1.35,1.27 80.4 0 0 -1.24,-0.94 l -6.73,0.1 a 0.74,0.69 -81.2 0 0 -0.66,0.52 l -8.7,26.92 a 0.42,0.38 -80.5 0 0 0.35,0.54 h 6.39 a 0.76,0.62 -79.4 0 0 0.63,-0.53 l 1.07,-3.43 a 0.74,0.71 -81.4 0 1 0.67,-0.52 l 7,-0.11 a 0.98,0.9 71.9 0 1 0.78,0.44"
       id="path226" />
    <path
       stroke="#7f7f7f"
       vector-effect="non-scaling-stroke"
       d="m 427.71,282.95 -3.53,-15.53 a 0.68,0.63 83.5 0 0 -0.61,-0.52 l -8.72,-0.12 a 0.62,0.59 -89.5 0 0 -0.6,0.62 l 0.06,27.03 a 0.53,0.51 90 0 0 0.51,0.53 l 4.79,0.03 a 0.7,0.65 -89.2 0 0 0.66,-0.69 l 0.26,-19.24 q 0.01,-0.58 0.14,-0.02 1.95,8.52 3.77,17.06 0.02,0.09 0.17,1.18 0.32,2.35 2.91,1.83 0.47,-0.09 0.96,0.01 2.13,0.43 2.52,-1.37 3.11,-14.44 4.19,-18.95 0.13,-0.52 0.14,0.02 l 0.23,19.63 a 0.52,0.5 89.4 0 0 0.5,0.51 l 4.83,0.02 a 0.62,0.61 90 0 0 0.61,-0.62 v -27.11 a 0.5,0.5 0 0 0 -0.5,-0.5 h -8.64 a 0.91,0.86 -83.3 0 0 -0.85,0.71 l -3.56,15.5 q -0.12,0.53 -0.24,-0.01"
       id="path228" />
    <path
       stroke="#7f7f7f"
       vector-effect="non-scaling-stroke"
       d="m 461.78,291.06 0.88,3.41 a 0.69,0.65 -7.1 0 0 0.66,0.48 l 6.68,0.04 a 0.49,0.48 80.7 0 0 0.45,-0.64 l -8.86,-27.05 a 0.75,0.66 79.7 0 0 -0.65,-0.52 l -7.25,0.11 a 0.76,0.69 -80.4 0 0 -0.66,0.52 l -8.7,26.87 a 0.51,0.49 -81 0 0 0.46,0.67 l 6.27,-0.08 a 0.74,0.69 -81.2 0 0 0.66,-0.52 l 1.08,-3.43 a 0.76,0.62 -79.2 0 1 0.64,-0.54 l 7.75,0.11 a 0.74,0.57 81.3 0 1 0.59,0.57"
       id="path230" />
    <path
       stroke="#7f7f7f"
       vector-effect="non-scaling-stroke"
       d="m 160.28,288.75 q 3.66,0.4 4.81,-3.79 1.01,-3.74 0.37,-7.55 -0.65,-3.82 -3.96,-4.41 -3.87,-0.69 -5.25,3.25 -1.05,3.01 -0.5,7 0.32,2.32 1.33,3.74 1.09,1.53 3.2,1.76"
       id="path232" />
    <path
       stroke="#7f7f7f"
       vector-effect="non-scaling-stroke"
       d="m 98.71,272.63 q -1.81,-0.31 -3.66,-0.12 a 0.58,0.53 -3.4 0 0 -0.53,0.54 l 0.1,4.52 a 0.66,0.62 4.1 0 0 0.55,0.59 q 2.5,0.45 4.73,-0.6 1.03,-0.48 1.33,-1.45 0.38,-1.22 -0.2,-2.17 -0.61,-1.01 -2.32,-1.31"
       id="path234" />
    <path
       stroke="#7f7f7f"
       vector-effect="non-scaling-stroke"
       d="m 255.9,283.59 a 0.44,0.41 -81.6 0 0 0.39,0.56 l 3.97,-0.04 a 0.47,0.43 81.5 0 0 0.39,-0.59 l -2.07,-8.47 q -0.14,-0.55 -0.29,-0.01 l -2.39,8.55"
       id="path236" />
    <path
       stroke="#7f7f7f"
       vector-effect="non-scaling-stroke"
       d="m 322.57,273.82 q -1.8,-0.85 -4.01,-0.58 a 0.6,0.58 87.3 0 0 -0.51,0.58 L 318,287.8 a 0.6,0.6 4.5 0 0 0.51,0.59 q 3.14,0.47 4.85,-0.91 1.37,-1.11 1.7,-4 0.39,-3.41 -0.36,-6.95 -0.39,-1.88 -2.13,-2.71"
       id="path238" />
    <path
       stroke="#7f7f7f"
       vector-effect="non-scaling-stroke"
       d="m 398.28,274.84 -2.43,8.91 a 0.4,0.39 -82.6 0 0 0.38,0.5 h 4.21 a 0.45,0.44 82.9 0 0 0.43,-0.56 l -2.28,-8.85 q -0.15,-0.57 -0.31,0"
       id="path240" />
    <path
       stroke="#7f7f7f"
       vector-effect="non-scaling-stroke"
       d="m 457.06,274.97 -2.35,8.7 a 0.45,0.44 -82.4 0 0 0.42,0.57 l 4.06,-0.03 a 0.4,0.4 -7.2 0 0 0.39,-0.5 l -2.24,-8.75 q -0.13,-0.53 -0.28,0.01"
       id="path242" />
  </g>
  <path
     fill="#ed3237"
     d="m 364.54,0 h 5 15.25 q 130.82,4.6 230.06,86.73 51.8,42.86 86.25,103 34.99,61.07 45.15,132.39 1.4,9.84 2.26,19.87 8.53,100.08 -33.03,190.24 -33.71,73.12 -95.36,126.54 -7.52,6.52 -15.49,12.66 -93.55,72.1 -213.15,78.36 h -33.5 Q 273.02,745.62 199.85,706.73 128.51,668.81 79.48,605.85 5.53,510.92 0.25,389.29 L 0,364.54 Q 5.02,232.94 88.1,133.45 94.56,125.71 101.37,118.48 160.71,55.41 240.85,24.6 299.51,2.05 364.54,0 Z M 28.25,314.54 25.08,314.46 a 1.47,1.21 3.5 0 0 -1.47,1.06 l -1.84,14.83 a 0.62,0.61 12.9 0 0 0.43,0.67 q 1.6,0.53 3.34,0.31 -14.93,113.72 37.44,213.73 4.64,8.86 9.82,17.42 43.88,72.53 114.18,116.62 75.14,47.14 161.31,53.44 114.06,8.34 211.71,-51.01 8.62,-5.24 16.75,-10.93 64.93,-45.42 104.81,-113.91 5.01,-8.61 9.49,-17.61 48.59,-97.67 34.49,-207.5 l 7.97,-0.21 a 1.23,1.34 86.2 0 0 1.31,-1.37 l -1.61,-14.26 a 1.3,1.41 86.8 0 0 -1.4,-1.16 l -9.09,0.08 Q 708.01,238.17 663.85,175.98 617.55,110.76 546.73,71.1 471.39,28.91 383.04,26.89 q -10.06,-0.23 -19.99,0.13 -60.98,2.2 -116.51,24.02 -77.19,30.34 -133.69,92.81 -65.6,72.55 -84.6,170.69 z"
     id="path246" />
  <path
     fill="#000000"
     d="m 722.72,314.66 -160.93,0.13 a 0.4,0.41 6.8 0 1 -0.39,-0.5 q 6.9,-27.68 13.89,-55 2.06,-8.05 6.19,-19.56 2.89,-8.07 6.45,-13.69 5.46,-8.62 12.57,-16.05 7.57,-7.9 17.93,-8.09 6.94,-0.13 10.67,1.08 6.11,1.98 7.13,9.56 a 1.38,1.44 56.6 0 1 -0.21,0.92 q -3.06,4.8 -6,9.67 -5.14,8.5 -5.94,10.27 -4.5,9.96 -1.23,20.83 0.73,2.4 1.11,3.97 0.67,2.75 1.22,3.93 4.89,10.33 15.3,13.3 5.61,1.6 13.2,1.57 6.72,-0.03 13.28,-2.09 11.65,-3.65 17.77,-14.18 3.94,-6.8 4.66,-15.58 0.51,-6.29 0.52,-9.69 0.03,-5.38 -1.87,-9.67 -8.29,-18.71 -26.16,-30.55 -2.96,-1.96 -7.09,-3.77 -3.69,-1.62 -7.39,-3.19 -11.35,-4.79 -23.38,-5.04 -9.21,-0.2 -19.9,1.68 -11.54,2.03 -22.83,7.37 -17.08,8.07 -28.06,17.69 -9.11,7.96 -24.33,24.68 -21.22,23.31 -32.69,52.7 -5.15,13.18 -8.75,26.93 a 0.66,0.67 7.4 0 1 -0.64,0.5 q -44.52,0 -88.79,0 -4.71,0 -9.37,-0.99 -15.23,-3.26 -18.87,-3.76 -35.56,-4.93 -66.33,13.65 -6.48,3.91 -11.72,9.03 -4.98,4.88 -10.01,11.01 -8.02,9.77 -11.89,20.54 -3.66,10.18 -5.35,20.82 -0.8,5.09 -0.19,10.43 1.4,12.23 4.55,21.71 3.36,10.08 9.39,18.83 3.32,4.82 6.55,9.71 5.12,7.76 11.94,14.08 5.96,5.53 25.47,26.62 0.05,0.06 8.67,9.17 8.79,9.31 16.68,19.41 1.21,1.54 3.86,4.14 2.4,2.36 3.44,4.54 7.36,15.42 4.46,31.69 -1.34,7.48 -5.14,12.26 -4.98,6.26 -13.32,9.67 -14.14,5.8 -27.81,4.44 -8.36,-0.83 -20.67,-4.36 -4.83,-1.39 -7.38,-2.95 -3.61,-2.2 -6.01,-5.38 -7.3,-9.65 -5.68,-21.76 0.09,-0.64 1.26,-5.54 0.66,-2.79 0.88,-5.65 0.19,-2.39 0.45,-3.68 0.58,-2.88 0.96,-3.62 5.84,-11.38 0.65,-21.88 -2.23,-4.51 -4.9,-7.91 -3.03,-3.87 -7.37,-5.96 -15.43,-7.42 -30.68,0.92 -5.25,2.86 -9.86,6.66 -8.01,6.6 -7.74,17.11 0.09,3.5 0.18,7 0.16,6.07 -4.28,10.06 -5.61,5.05 -11.31,10.01 -1.89,1.64 -6.33,6.02 -3.56,3.51 -6.73,5.6 -11.81,7.76 -24.25,0.12 -4.7,-2.88 -6.35,-8.03 -1.24,-3.86 -0.24,-9.11 0.73,-3.87 2.34,-8.98 8.93,-28.46 17.78,-56.95 2.77,-8.91 5.83,-19.14 20.88,-69.81 42.65,-139.19 a 0.31,0.31 0 0 0 -0.3,-0.41 q -98.4,0 -196.4,0 -0.97,0 -1.29,-0.25 19,-98.14 84.6,-170.69 56.5,-62.47 133.69,-92.81 55.53,-21.82 116.51,-24.02 9.93,-0.36 19.99,-0.13 88.35,2.02 163.69,44.21 70.82,39.66 117.12,104.88 44.16,62.19 58.87,138.68 z M 181.35,292.71 q 2.12,1.94 5.44,2.33 8.02,0.95 13.82,-3.99 a 1.1,1.06 70.6 0 0 0.38,-0.83 l 0.04,-10.91 a 0.5,0.5 0 0 0 -0.51,-0.51 l -10.42,0.04 a 0.51,0.53 89.4 0 0 -0.52,0.51 l -0.03,4.68 a 0.52,0.51 0 0 0 0.52,0.51 q 1.47,0 2.45,-0.15 2.58,-0.41 2.05,2.03 a 2.45,2.45 0 0 1 -1.49,1.75 q -7.16,2.87 -8.75,-3.99 -0.87,-3.82 -0.01,-7.63 0.7,-3.12 3.69,-3.97 3.62,-1.03 5.4,2.45 a 0.68,0.66 70 0 0 0.74,0.36 l 5.91,-1.29 a 0.61,0.59 77.1 0 0 0.44,-0.73 q -1.55,-6.56 -8.45,-7.2 -11.68,-1.1 -14.66,8.04 -1.6,4.93 -0.93,9.6 0.75,5.12 4.89,8.9 z m -28.62,0.14 q 4.42,3.73 11.32,1.98 6.09,-1.54 7.99,-7.54 1.72,-5.45 0.53,-11.05 -2.33,-10.96 -13.78,-9.97 -6.3,0.55 -9.08,6.14 -2.1,4.22 -1.67,10.38 0.46,6.5 4.69,10.06 z m -76.64,-19.24 6.51,-0.22 a 0.55,0.58 89.4 0 0 0.56,-0.54 l 0.08,-5.52 A 0.84,0.78 0.3 0 0 82.4,266.54 H 60.86 a 0.5,0.53 89.5 0 0 -0.53,0.51 l 0.09,5.8 a 0.56,0.56 0 0 0 0.55,0.55 l 6.45,0.11 a 0.63,0.6 0.5 0 1 0.62,0.6 v 20.14 a 0.52,0.53 0 0 0 0.52,0.53 l 6.42,-0.04 a 0.5,0.51 0 0 0 0.5,-0.51 l 0.12,-20.12 a 0.5,0.5 0 0 1 0.49,-0.5 z m 27.7,8.51 q 6.83,-3.72 4.38,-10.83 -0.66,-1.91 -1.94,-3.02 -1.59,-1.38 -3.44,-1.48 -7.24,-0.41 -15.36,-0.23 a 0.65,0.65 0 0 0 -0.64,0.65 v 27.08 a 0.5,0.5 0 0 0 0.5,0.5 h 6.36 a 0.66,0.69 0.4 0 0 0.66,-0.68 l 0.14,-10.13 a 0.58,0.58 0 0 1 0.53,-0.58 q 1.67,-0.19 2.25,0.95 2.49,4.95 4.91,9.93 a 0.81,0.78 76.7 0 0 0.71,0.46 l 7.23,0.05 a 0.43,0.43 0 0 0 0.39,-0.61 q -2.05,-4.5 -3.99,-8.58 -0.69,-1.44 -2.72,-2.95 a 0.32,0.31 49 0 1 0.03,-0.53 z m 17.25,-15.31 a 0.27,0.27 0 0 0 -0.27,-0.27 h -6.96 a 0.27,0.27 0 0 0 -0.27,0.27 v 27.72 a 0.27,0.27 0 0 0 0.27,0.27 h 6.96 a 0.27,0.27 0 0 0 0.27,-0.27 z m 13.06,20.41 -0.06,-20.13 a 0.55,0.55 0 0 0 -0.55,-0.55 h -6.39 a 0.56,0.56 0 0 0 -0.56,0.56 v 27.17 a 0.51,0.52 0 0 0 0.51,0.52 l 18.18,-0.06 a 0.48,0.53 89.5 0 0 0.53,-0.49 l -0.1,-5.76 A 0.57,0.49 0.7 0 0 145.11,288 l -10.51,-0.22 a 0.52,0.56 1.1 0 1 -0.5,-0.56 z m 79.44,-20.36 a 0.31,0.31 0 0 0 -0.31,-0.31 h -6.88 a 0.31,0.31 0 0 0 -0.31,0.31 v 27.62 a 0.31,0.31 0 0 0 0.31,0.31 h 6.88 a 0.31,0.31 0 0 0 0.31,-0.31 z m 30.79,27.68 7.77,0.12 a 0.62,0.75 10.9 0 0 0.64,-0.53 l 1.07,-3.43 a 0.69,0.76 9.6 0 1 0.66,-0.52 l 7.22,-0.09 a 1.38,1.05 80.3 0 1 1.11,1.03 l 0.85,3.15 a 0.62,0.76 84.3 0 0 0.71,0.47 l 6.49,0.04 a 0.42,0.42 0 0 0 0.4,-0.55 l -8.74,-27.03 a 0.73,0.68 80.7 0 0 -0.66,-0.51 l -7.25,-0.11 a 0.65,0.71 10 0 0 -0.65,0.5 q -4.07,12.63 -8.1,25.27 -0.42,1.33 -1.06,1.65 -4.93,-7.98 -8.97,-16.44 a 0.82,0.75 53.4 0 1 0.09,-0.84 l 7.85,-9.28 q 0.76,-0.9 -0.4,-0.9 h -8.22 a 1.3,1.34 19 0 0 -1.05,0.53 l -7.18,9.53 q -0.37,0.49 -0.37,-0.13 v -9.39 a 0.52,0.53 0 0 0 -0.52,-0.53 l -6.42,0.04 a 0.5,0.51 0 0 0 -0.5,0.51 v 27.13 a 0.51,0.52 0.6 0 0 0.5,0.52 l 5.69,0.02 a 1.45,1.41 84.8 0 0 1.39,-1.71 q -1,-5.35 3.5,-9.11 a 0.45,0.45 0 0 1 0.7,0.16 l 4.4,10.04 a 0.84,0.72 76.5 0 0 0.7,0.51 z m 49.27,-11.69 10.37,-0.12 a 0.53,0.5 0 0 0 0.53,-0.5 l 0.02,-4.43 a 0.77,0.75 0.4 0 0 -0.77,-0.76 H 293.62 A 0.78,0.78 0 0 1 292.89,276 q 0.43,-1.21 0,-2.43 a 0.77,0.77 0 0 1 0.72,-1.03 h 11.41 a 0.52,0.52 0 0 0 0.52,-0.52 v -4.95 a 0.52,0.52 0 0 0 -0.52,-0.52 l -19.05,0.16 a 0.49,0.51 0 0 0 -0.49,0.51 l 0.05,27.08 a 0.43,0.43 0 0 0 0.43,0.43 h 19.52 a 0.49,0.53 89 0 0 0.53,-0.51 l -0.2,-5.18 a 0.52,0.58 89 0 0 -0.58,-0.5 l -11.5,-0.16 a 0.61,0.52 0.1 0 1 -0.6,-0.51 l -0.1,-4.52 a 0.49,0.57 89.5 0 1 0.57,-0.5 z m 33.97,-14.56 q -2.73,-1.79 -6.03,-1.78 -5.13,0.03 -10.78,0.03 a 0.53,0.54 0 0 0 -0.53,0.54 v 27.02 a 0.54,0.54 0 0 0 0.5,0.54 q 8.61,0.62 12.81,-0.1 6.54,-1.12 8.23,-7.51 1.88,-7.08 -0.51,-13.98 -1.04,-3.02 -3.69,-4.76 z m 16.75,26.41 q 2.84,0.73 6.22,0.34 4.99,-0.58 7.39,-3.96 1.59,-2.24 1.9,-7.43 0.46,-7.67 0.16,-16.2 a 0.92,0.9 88.7 0 0 -0.91,-0.89 l -5.98,0.02 a 0.52,0.51 89.4 0 0 -0.5,0.52 q -0.11,8.6 -0.21,17.19 -0.04,3.53 -2.85,4.25 -2.88,0.74 -4.35,-1.2 -0.88,-1.16 -0.97,-3.82 -0.28,-8.21 -0.25,-16.42 a 0.49,0.52 0 0 0 -0.5,-0.53 l -6.25,0.11 a 0.55,0.5 89.5 0 0 -0.49,0.55 q 0.11,8.66 0.16,17.31 0.03,4.12 2.36,6.98 1.92,2.36 5.07,3.18 z m 26.66,-20.59 0.06,20.01 a 0.67,0.67 0 0 0 0.67,0.67 h 6.28 a 0.55,0.55 0 0 0 0.55,-0.55 l 0.06,-20.13 a 0.5,0.52 0 0 1 0.5,-0.52 l 6.61,-0.05 a 0.49,0.54 89.5 0 0 0.54,-0.5 l -0.09,-5.81 a 0.56,0.53 0 0 0 -0.55,-0.52 l -21.57,-0.16 a 0.7,0.69 89.6 0 0 -0.69,0.71 l 0.12,5.59 a 0.52,0.55 0.5 0 0 0.5,0.54 l 6.51,0.21 a 0.52,0.51 1.2 0 1 0.5,0.51 z m 31.28,16.4 q 1.01,1.57 1.28,3.48 a 0.7,0.68 89.8 0 0 0.56,0.58 q 3.34,0.56 6.7,0.05 a 0.43,0.43 0 0 0 0.34,-0.56 l -8.44,-26.54 a 1.35,1.27 80.4 0 0 -1.24,-0.94 l -6.73,0.1 a 0.69,0.74 8.8 0 0 -0.66,0.52 l -8.7,26.92 a 0.38,0.42 9.5 0 0 0.35,0.54 h 6.39 a 0.62,0.76 10.6 0 0 0.63,-0.53 l 1.07,-3.43 a 0.71,0.74 8.6 0 1 0.67,-0.52 l 7,-0.11 a 0.98,0.9 71.9 0 1 0.78,0.44 z m 25.24,-7.77 -3.53,-15.53 a 0.68,0.63 83.5 0 0 -0.61,-0.52 l -8.72,-0.12 a 0.59,0.62 0.5 0 0 -0.6,0.62 l 0.06,27.03 a 0.51,0.53 0 0 0 0.51,0.53 l 4.79,0.03 a 0.65,0.7 0.8 0 0 0.66,-0.69 l 0.26,-19.24 q 0.01,-0.58 0.14,-0.02 1.95,8.52 3.77,17.06 0.02,0.09 0.17,1.18 0.32,2.35 2.91,1.83 0.47,-0.09 0.96,0.01 2.13,0.43 2.52,-1.37 3.11,-14.44 4.19,-18.95 0.13,-0.52 0.14,0.02 l 0.23,19.63 a 0.52,0.5 89.4 0 0 0.5,0.51 l 4.83,0.02 a 0.61,0.62 0 0 0 0.61,-0.62 v -27.11 a 0.5,0.5 0 0 0 -0.5,-0.5 h -8.64 a 0.86,0.91 6.7 0 0 -0.85,0.71 l -3.56,15.5 q -0.12,0.53 -0.24,-0.01 z m 34.07,8.11 0.88,3.41 a 0.65,0.69 82.9 0 0 0.66,0.48 l 6.68,0.04 a 0.49,0.48 80.7 0 0 0.45,-0.64 l -8.86,-27.05 a 0.75,0.66 79.7 0 0 -0.65,-0.52 l -7.25,0.11 a 0.69,0.76 9.6 0 0 -0.66,0.52 l -8.7,26.87 a 0.49,0.51 9 0 0 0.46,0.67 l 6.27,-0.08 a 0.69,0.74 8.8 0 0 0.66,-0.52 l 1.08,-3.43 a 0.62,0.76 10.8 0 1 0.64,-0.54 l 7.75,0.11 a 0.74,0.57 81.3 0 1 0.59,0.57 z"
     id="path248" />
  <path
     fill="#ea1e1d"
     d="m 722.72,314.66 9.09,-0.08 a 1.3,1.41 86.8 0 1 1.4,1.16 l 1.61,14.26 a 1.23,1.34 86.2 0 1 -1.31,1.37 l -7.97,0.21 q -0.49,-0.29 -1.75,-0.29 -82.5,0 -164.98,0 a 0.5,0.5 0 0 0 -0.48,0.37 q -11.16,41.29 -21.89,82.56 -11.27,43.33 -25.47,85.8 -18.13,54.18 -43.79,105.19 -3.79,7.54 -8.36,13.94 -15.06,21.08 -32.77,39.99 -6.45,6.89 -13.02,11.7 -26.72,19.57 -57.8,26.64 -15.98,3.63 -32.51,-0.13 -9.9,-2.25 -17.36,-7.3 -7.93,-5.37 -13.91,-13.17 -7.3,-9.53 -9.26,-21.07 -0.99,-5.83 0.36,-11.98 1.42,-6.47 4.05,-11.48 11.21,-21.28 36.43,-19.48 6.47,0.46 12.01,2.67 8.46,3.38 12.28,10.95 2.59,5.14 2.23,10.94 -0.37,5.96 -3.6,11.01 -0.46,0.72 -5.66,6.42 -4.87,5.34 -6.69,11.49 -3.07,10.38 6.38,16.17 3.7,2.26 8.06,2.25 10.74,-0.02 19.89,-5.54 9.73,-5.87 18.71,-12.82 6.23,-4.82 10.89,-11.01 3.69,-4.91 7.29,-13.45 5.24,-12.4 7.66,-22.22 35.39,-143.69 70.68,-287.94 a 0.4,0.41 6.8 0 0 -0.39,-0.5 h -58.84 q -1.67,0 -0.19,0.76 15.64,8.02 17.63,25.36 0.17,1.51 0.04,3.76 -0.11,1.9 -0.14,3.79 -0.04,3.93 -0.29,5.65 -2.09,14.35 -13.75,22.62 -5.15,3.65 -11.61,4.67 -4.61,0.72 -10.68,0.46 -5.98,-0.26 -10.59,-2.13 -13.68,-5.56 -14.18,-21.44 -0.3,-9.59 3.43,-21.19 2.65,-8.24 -2.65,-14.95 -2.74,-3.45 -5.19,-7.11 -1.76,-2.63 -4.28,-3.94 -12.56,-6.5 -26.88,-4 -6.56,1.15 -11.68,5.23 -4.81,3.82 -8.53,9.11 -2.79,3.98 -4.14,8.68 -1.24,4.35 -0.48,9.41 1.11,7.35 4.45,13.91 2.37,4.66 8.61,11.51 28.36,31.13 52.52,55.03 12.57,12.43 21.64,26.11 6.11,9.22 9.25,17.67 9.93,26.77 0.04,55.79 -0.33,0.96 -0.95,1.76 -10.46,13.45 -20.77,26.57 -0.06,0.07 -0.98,1.36 -1.23,1.71 -3.23,3.11 -28.45,19.96 -62.41,23.17 -10.18,0.96 -16.31,0.99 -7.98,0.06 -16.34,-1.47 Q 266,586.19 242.15,569.66 229.02,560.55 219.52,547 a 0.34,0.34 0 0 0 -0.55,-0.01 q -11.07,14.54 -25.91,24.79 -9,6.22 -17.26,10.08 -12.54,5.85 -26.47,7.34 -3.55,0.38 -7.94,1.43 -17.2,4.09 -31.79,-4.9 -24.65,-15.2 -24.31,-45.69 0.05,-4.44 1.25,-8.7 27.81,-99.64 55.57,-199.56 a 0.38,0.38 0 0 0 -0.37,-0.49 l -116.2,0.04 q -1.74,0.22 -3.34,-0.31 a 0.62,0.61 12.9 0 1 -0.43,-0.67 l 1.84,-14.83 a 1.47,1.21 3.5 0 1 1.47,-1.06 l 3.17,0.08 q 0.32,0.25 1.29,0.25 98,0 196.4,0 a 0.31,0.31 0 0 1 0.3,0.41 q -21.77,69.38 -42.65,139.19 -3.06,10.23 -5.83,19.14 -8.85,28.49 -17.78,56.95 -1.61,5.11 -2.34,8.98 -1,5.25 0.24,9.11 1.65,5.15 6.35,8.03 12.44,7.64 24.25,-0.12 3.17,-2.09 6.73,-5.6 4.44,-4.38 6.33,-6.02 5.7,-4.96 11.31,-10.01 4.44,-3.99 4.28,-10.06 -0.09,-3.5 -0.18,-7 -0.27,-10.51 7.74,-17.11 4.61,-3.8 9.86,-6.66 15.25,-8.34 30.68,-0.92 4.34,2.09 7.37,5.96 2.67,3.4 4.9,7.91 5.19,10.5 -0.65,21.88 -0.38,0.74 -0.96,3.62 -0.26,1.29 -0.45,3.68 -0.22,2.86 -0.88,5.65 -1.17,4.9 -1.26,5.54 -1.62,12.11 5.68,21.76 2.4,3.18 6.01,5.38 2.55,1.56 7.38,2.95 12.31,3.53 20.67,4.36 13.67,1.36 27.81,-4.44 8.34,-3.41 13.32,-9.67 3.8,-4.78 5.14,-12.26 2.9,-16.27 -4.46,-31.69 -1.04,-2.18 -3.44,-4.54 -2.65,-2.6 -3.86,-4.14 -7.89,-10.1 -16.68,-19.41 -8.62,-9.11 -8.67,-9.17 -19.51,-21.09 -25.47,-26.62 -6.82,-6.32 -11.94,-14.08 -3.23,-4.89 -6.55,-9.71 -6.03,-8.75 -9.39,-18.83 -3.15,-9.48 -4.55,-21.71 -0.61,-5.34 0.19,-10.43 1.69,-10.64 5.35,-20.82 3.87,-10.77 11.89,-20.54 5.03,-6.13 10.01,-11.01 5.24,-5.12 11.72,-9.03 30.77,-18.58 66.33,-13.65 3.64,0.5 18.87,3.76 4.66,0.99 9.37,0.99 44.27,0 88.79,0 a 0.66,0.67 7.4 0 0 0.64,-0.5 q 3.6,-13.75 8.75,-26.93 11.47,-29.39 32.69,-52.7 15.22,-16.72 24.33,-24.68 10.98,-9.62 28.06,-17.69 11.29,-5.34 22.83,-7.37 10.69,-1.88 19.9,-1.68 12.03,0.25 23.38,5.04 3.7,1.57 7.39,3.19 4.13,1.81 7.09,3.77 17.87,11.84 26.16,30.55 1.9,4.29 1.87,9.67 -0.01,3.4 -0.52,9.69 -0.72,8.78 -4.66,15.58 -6.12,10.53 -17.77,14.18 -6.56,2.06 -13.28,2.09 -7.59,0.03 -13.2,-1.57 -10.41,-2.97 -15.3,-13.3 -0.55,-1.18 -1.22,-3.93 -0.38,-1.57 -1.11,-3.97 -3.27,-10.87 1.23,-20.83 0.8,-1.77 5.94,-10.27 2.94,-4.87 6,-9.67 a 1.38,1.44 56.6 0 0 0.21,-0.92 q -1.02,-7.58 -7.13,-9.56 -3.73,-1.21 -10.67,-1.08 -10.36,0.19 -17.93,8.09 -7.11,7.43 -12.57,16.05 -3.56,5.62 -6.45,13.69 -4.13,11.51 -6.19,19.56 -6.99,27.32 -13.89,55 a 0.4,0.41 6.8 0 0 0.39,0.5 z"
     id="path264" />
  <path
     fill="#fefefe"
     d="m 181.35,292.71 q -4.14,-3.78 -4.89,-8.9 -0.67,-4.67 0.93,-9.6 2.98,-9.14 14.66,-8.04 6.9,0.64 8.45,7.2 a 0.61,0.59 77.1 0 1 -0.44,0.73 l -5.91,1.29 a 0.68,0.66 70 0 1 -0.74,-0.36 q -1.78,-3.48 -5.4,-2.45 -2.99,0.85 -3.69,3.97 -0.86,3.81 0.01,7.63 1.59,6.86 8.75,3.99 a 2.45,2.45 0 0 0 1.49,-1.75 q 0.53,-2.44 -2.05,-2.03 -0.98,0.15 -2.45,0.15 a 0.52,0.51 0 0 1 -0.52,-0.51 l 0.03,-4.68 a 0.51,0.53 89.4 0 1 0.52,-0.51 l 10.42,-0.04 a 0.5,0.5 0 0 1 0.51,0.51 l -0.04,10.91 a 1.1,1.06 70.6 0 1 -0.38,0.83 q -5.8,4.94 -13.82,3.99 -3.32,-0.39 -5.44,-2.33 z"
     id="path288" />
  <path
     fill="#fefefe"
     d="m 152.73,292.85 q -4.23,-3.56 -4.69,-10.06 -0.43,-6.16 1.67,-10.38 2.78,-5.59 9.08,-6.14 11.45,-0.99 13.78,9.97 1.19,5.6 -0.53,11.05 -1.9,6 -7.99,7.54 -6.9,1.75 -11.32,-1.98 z m 7.34,-4.31 q 3.66,0.4 4.81,-3.79 1.01,-3.74 0.37,-7.55 -0.65,-3.82 -3.96,-4.41 -3.87,-0.69 -5.25,3.25 -1.05,3.01 -0.5,7 0.32,2.32 1.33,3.74 1.09,1.53 3.2,1.76 z"
     id="path290" />
  <path
     fill="#fefefe"
     d="m 75.6,274.11 -0.12,20.12 a 0.5,0.51 0 0 1 -0.5,0.51 l -6.42,0.04 a 0.52,0.53 0 0 1 -0.52,-0.53 v -20.14 a 0.63,0.6 0.5 0 0 -0.62,-0.6 l -6.45,-0.11 a 0.56,0.56 0 0 1 -0.55,-0.55 l -0.09,-5.8 a 0.5,0.53 89.5 0 1 0.53,-0.51 H 82.4 a 0.84,0.78 0.3 0 1 0.84,0.79 l -0.08,5.52 a 0.55,0.58 89.4 0 1 -0.56,0.54 l -6.51,0.22 a 0.5,0.5 0 0 0 -0.49,0.5 z"
     id="path292" />
  <path
     fill="#fefefe"
     d="m 103.76,282.65 q 2.03,1.51 2.72,2.95 1.94,4.08 3.99,8.58 a 0.43,0.43 0 0 1 -0.39,0.61 l -7.23,-0.05 a 0.81,0.78 76.7 0 1 -0.71,-0.46 q -2.42,-4.98 -4.91,-9.93 -0.58,-1.14 -2.25,-0.95 a 0.58,0.58 0 0 0 -0.53,0.58 l -0.14,10.13 a 0.66,0.69 0.4 0 1 -0.66,0.68 h -6.36 a 0.5,0.5 0 0 1 -0.5,-0.5 v -27.08 a 0.65,0.65 0 0 1 0.64,-0.65 q 8.12,-0.18 15.36,0.23 1.85,0.1 3.44,1.48 1.28,1.11 1.94,3.02 2.45,7.11 -4.38,10.83 a 0.32,0.31 49 0 0 -0.03,0.53 z M 98.5,272.42 q -1.81,-0.31 -3.66,-0.12 a 0.53,0.58 86.6 0 0 -0.53,0.54 l 0.1,4.52 a 0.66,0.62 4.1 0 0 0.55,0.59 q 2.5,0.45 4.73,-0.6 1.03,-0.48 1.33,-1.45 0.38,-1.22 -0.2,-2.17 -0.61,-1.01 -2.32,-1.31 z"
     id="path294" />
  <rect
     fill="#fefefe"
     x="113.54"
     y="266.54001"
     width="7.5"
     height="28.26"
     rx="0.27000001"
     id="rect296" />
  <path
     fill="#fefefe"
     d="m 134.6,287.78 10.51,0.22 a 0.57,0.49 0.7 0 1 0.55,0.48 l 0.1,5.76 a 0.48,0.53 89.5 0 1 -0.53,0.49 l -18.18,0.06 a 0.51,0.52 0 0 1 -0.51,-0.52 V 267.1 a 0.56,0.56 0 0 1 0.56,-0.56 h 6.39 a 0.55,0.55 0 0 1 0.55,0.55 l 0.06,20.13 a 0.52,0.56 1.1 0 0 0.5,0.56 z"
     id="path298" />
  <rect
     fill="#fefefe"
     x="206.03999"
     y="266.55002"
     width="7.5"
     height="28.24"
     rx="0.31"
     id="rect300" />
  <path
     fill="#fefefe"
     d="m 244.79,294 q -0.4,0.14 -0.46,0.54 l -8.35,0.12 a 0.84,0.72 76.5 0 1 -0.7,-0.51 l -4.4,-10.04 a 0.45,0.45 0 0 0 -0.7,-0.16 q -4.5,3.76 -3.5,9.11 a 1.45,1.41 84.8 0 1 -1.39,1.71 l -5.69,-0.02 a 0.51,0.52 0.6 0 1 -0.5,-0.52 V 267.1 a 0.5,0.51 0 0 1 0.5,-0.51 l 6.42,-0.04 a 0.52,0.53 0 0 1 0.52,0.53 v 9.39 q 0,0.62 0.37,0.13 l 7.18,-9.53 a 1.3,1.34 19 0 1 1.05,-0.53 h 8.22 q 1.16,0 0.4,0.9 l -7.85,9.28 a 0.82,0.75 53.4 0 0 -0.09,0.84 q 4.04,8.46 8.97,16.44 z"
     id="path302" />
  <path
     fill="#fefefe"
     d="m 244.33,294.54 q 0.06,-0.4 0.46,-0.54 0.64,-0.32 1.06,-1.65 4.03,-12.64 8.1,-25.27 a 0.65,0.71 10 0 1 0.65,-0.5 l 7.25,0.11 a 0.73,0.68 80.7 0 1 0.66,0.51 l 8.74,27.03 a 0.42,0.42 0 0 1 -0.4,0.55 l -6.49,-0.04 a 0.62,0.76 84.3 0 1 -0.71,-0.47 l -0.85,-3.15 a 1.38,1.05 80.3 0 0 -1.11,-1.03 l -7.22,0.09 a 0.69,0.76 9.6 0 0 -0.66,0.52 l -1.07,3.43 a 0.62,0.75 10.9 0 1 -0.64,0.53 z m 11.36,-11.16 a 0.41,0.44 8.4 0 0 0.39,0.56 l 3.97,-0.04 a 0.47,0.43 81.5 0 0 0.39,-0.59 l -2.07,-8.47 q -0.14,-0.55 -0.29,-0.01 z"
     id="path304" />
  <path
     fill="#fefefe"
     d="m 293.03,283.35 0.1,4.52 a 0.61,0.52 0.1 0 0 0.6,0.51 l 11.5,0.16 a 0.52,0.58 89 0 1 0.58,0.5 l 0.2,5.18 a 0.49,0.53 89 0 1 -0.53,0.51 h -19.52 a 0.43,0.43 0 0 1 -0.43,-0.43 l -0.05,-27.08 a 0.49,0.51 0 0 1 0.49,-0.51 l 19.05,-0.16 a 0.52,0.52 0 0 1 0.52,0.52 v 4.95 a 0.52,0.52 0 0 1 -0.52,0.52 h -11.41 a 0.77,0.77 0 0 0 -0.72,1.03 q 0.43,1.22 0,2.43 a 0.78,0.78 0 0 0 0.73,1.04 h 10.13 a 0.77,0.75 0.4 0 1 0.77,0.76 l -0.02,4.43 a 0.53,0.5 0 0 1 -0.53,0.5 l -10.37,0.12 a 0.49,0.57 89.5 0 0 -0.57,0.5 z"
     id="path306" />
  <path
     fill="#fefefe"
     d="m 327.57,268.29 q 2.65,1.74 3.69,4.76 2.39,6.9 0.51,13.98 -1.69,6.39 -8.23,7.51 -4.2,0.72 -12.81,0.1 a 0.54,0.54 0 0 1 -0.5,-0.54 v -27.02 a 0.53,0.54 0 0 1 0.53,-0.54 q 5.65,0 10.78,-0.03 3.3,-0.01 6.03,1.78 z m -5.21,5.32 q -1.8,-0.85 -4.01,-0.58 a 0.6,0.58 87.3 0 0 -0.51,0.58 l -0.05,13.98 a 0.6,0.6 0 0 0 0.51,0.59 q 3.14,0.47 4.85,-0.91 1.37,-1.11 1.7,-4 0.39,-3.41 -0.36,-6.95 -0.39,-1.88 -2.13,-2.71 z"
     id="path308" />
  <path
     fill="#fefefe"
     d="m 339.25,291.52 q -2.33,-2.86 -2.36,-6.98 -0.05,-8.65 -0.16,-17.31 a 0.55,0.5 89.5 0 1 0.49,-0.55 l 6.25,-0.11 a 0.49,0.52 0 0 1 0.5,0.53 q -0.03,8.21 0.25,16.42 0.09,2.66 0.97,3.82 1.47,1.94 4.35,1.2 2.81,-0.72 2.85,-4.25 0.1,-8.59 0.21,-17.19 a 0.52,0.51 89.4 0 1 0.5,-0.52 l 5.98,-0.02 a 0.92,0.9 88.7 0 1 0.91,0.89 q 0.3,8.53 -0.16,16.2 -0.31,5.19 -1.9,7.43 -2.4,3.38 -7.39,3.96 -3.38,0.39 -6.22,-0.34 -3.15,-0.82 -5.07,-3.18 z"
     id="path310" />
  <path
     fill="#fefefe"
     d="m 370.48,273.6 -6.51,-0.21 a 0.52,0.55 0.5 0 1 -0.5,-0.54 l -0.12,-5.59 a 0.7,0.69 89.6 0 1 0.69,-0.71 l 21.57,0.16 a 0.56,0.53 0 0 1 0.55,0.52 l 0.09,5.81 a 0.49,0.54 89.5 0 1 -0.54,0.5 l -6.61,0.05 a 0.5,0.52 0 0 0 -0.5,0.52 l -0.06,20.13 a 0.55,0.55 0 0 1 -0.55,0.55 h -6.28 a 0.67,0.67 0 0 1 -0.67,-0.67 l -0.06,-20.01 a 0.52,0.51 1.2 0 0 -0.5,-0.51 z"
     id="path312" />
  <path
     fill="#fefefe"
     d="m 401.48,290.07 -7,0.11 a 0.71,0.74 8.6 0 0 -0.67,0.52 l -1.07,3.43 a 0.62,0.76 10.6 0 1 -0.63,0.53 h -6.39 a 0.38,0.42 9.5 0 1 -0.35,-0.54 l 8.7,-26.92 a 0.69,0.74 8.8 0 1 0.66,-0.52 l 6.73,-0.1 a 1.35,1.27 80.4 0 1 1.24,0.94 l 8.44,26.54 a 0.43,0.43 0 0 1 -0.34,0.56 q -3.36,0.51 -6.7,-0.05 a 0.7,0.68 89.8 0 1 -0.56,-0.58 q -0.27,-1.91 -1.28,-3.48 a 0.98,0.9 71.9 0 0 -0.78,-0.44 z m -3.41,-15.44 -2.43,8.91 a 0.39,0.4 7.4 0 0 0.38,0.5 h 4.21 a 0.45,0.44 82.9 0 0 0.43,-0.56 l -2.28,-8.85 q -0.15,-0.57 -0.31,0 z"
     id="path314" />
  <path
     fill="#fefefe"
     d="m 427.74,282.75 3.56,-15.5 a 0.86,0.91 6.7 0 1 0.85,-0.71 h 8.64 a 0.5,0.5 0 0 1 0.5,0.5 v 27.11 a 0.61,0.62 0 0 1 -0.61,0.62 l -4.83,-0.02 a 0.52,0.5 89.4 0 1 -0.5,-0.51 l -0.23,-19.63 q -0.01,-0.54 -0.14,-0.02 -1.08,4.51 -4.19,18.95 -0.39,1.8 -2.52,1.37 -0.49,-0.1 -0.96,-0.01 -2.59,0.52 -2.91,-1.83 -0.15,-1.09 -0.17,-1.18 -1.82,-8.54 -3.77,-17.06 -0.13,-0.56 -0.14,0.02 l -0.26,19.24 a 0.65,0.7 0.8 0 1 -0.66,0.69 l -4.79,-0.03 a 0.51,0.53 0 0 1 -0.51,-0.53 l -0.06,-27.03 a 0.59,0.62 0.5 0 1 0.6,-0.62 l 8.72,0.12 a 0.68,0.63 83.5 0 1 0.61,0.52 l 3.53,15.53 q 0.12,0.54 0.24,0.01 z"
     id="path316" />
  <path
     fill="#fefefe"
     d="m 460.98,290.28 -7.75,-0.11 a 0.62,0.76 10.8 0 0 -0.64,0.54 l -1.08,3.43 a 0.69,0.74 8.8 0 1 -0.66,0.52 l -6.27,0.08 a 0.49,0.51 9 0 1 -0.46,-0.67 l 8.7,-26.87 a 0.69,0.76 9.6 0 1 0.66,-0.52 l 7.25,-0.11 a 0.75,0.66 79.7 0 1 0.65,0.52 l 8.86,27.05 a 0.49,0.48 80.7 0 1 -0.45,0.64 l -6.68,-0.04 a 0.65,0.69 82.9 0 1 -0.66,-0.48 l -0.88,-3.41 a 0.74,0.57 81.3 0 0 -0.59,-0.57 z m -4.13,-15.52 -2.35,8.7 a 0.44,0.45 7.6 0 0 0.42,0.57 l 4.06,-0.03 a 0.4,0.4 0 0 0 0.39,-0.5 l -2.24,-8.75 q -0.13,-0.53 -0.28,0.01 z"
     id="path318" />
  <path
     fill="#000000"
     d="m 100.82,273.73 q 0.58,0.95 0.2,2.17 -0.3,0.97 -1.33,1.45 -2.23,1.05 -4.73,0.6 a 0.66,0.62 4.1 0 1 -0.55,-0.59 l -0.1,-4.52 a 0.53,0.58 86.6 0 1 0.53,-0.54 q 1.85,-0.19 3.66,0.12 1.71,0.3 2.32,1.31 z"
     id="path320" />
  <path
     fill="#000000"
     d="m 156.87,286.78 q -1.01,-1.42 -1.33,-3.74 -0.55,-3.99 0.5,-7 1.38,-3.94 5.25,-3.25 3.31,0.59 3.96,4.41 0.64,3.81 -0.37,7.55 -1.15,4.19 -4.81,3.79 -2.11,-0.23 -3.2,-1.76 z"
     id="path322" />
  <path
     fill="#000000"
     d="m 322.36,273.61 q 1.74,0.83 2.13,2.71 0.75,3.54 0.36,6.95 -0.33,2.89 -1.7,4 -1.71,1.38 -4.85,0.91 a 0.6,0.6 0 0 1 -0.51,-0.59 l 0.05,-13.98 a 0.6,0.58 87.3 0 1 0.51,-0.58 q 2.21,-0.27 4.01,0.58 z"
     id="path324" />
  <path
     fill="#000000"
     d="m 255.69,283.38 2.39,-8.55 q 0.15,-0.54 0.29,0.01 l 2.07,8.47 a 0.47,0.43 81.5 0 1 -0.39,0.59 l -3.97,0.04 a 0.41,0.44 8.4 0 1 -0.39,-0.56 z"
     id="path326" />
  <path
     fill="#000000"
     d="m 398.07,274.63 q 0.16,-0.57 0.31,0 l 2.28,8.85 a 0.45,0.44 82.9 0 1 -0.43,0.56 h -4.21 a 0.39,0.4 7.4 0 1 -0.38,-0.5 z"
     id="path328" />
  <path
     fill="#000000"
     d="m 456.85,274.76 q 0.15,-0.54 0.28,-0.01 l 2.24,8.75 a 0.4,0.4 0 0 1 -0.39,0.5 l -4.06,0.03 a 0.44,0.45 7.6 0 1 -0.42,-0.57 z"
     id="path330" />
  <path
     fill="#000000"
     d="m 725.54,331.58 q 14.1,109.83 -34.49,207.5 -4.48,9 -9.49,17.61 -39.88,68.49 -104.81,113.91 -8.13,5.69 -16.75,10.93 -97.65,59.35 -211.71,51.01 Q 262.12,726.24 186.98,679.1 116.68,635.01 72.8,562.48 67.62,553.92 62.98,545.06 10.61,445.05 25.54,331.33 l 116.2,-0.04 a 0.38,0.38 0 0 1 0.37,0.49 q -27.76,99.92 -55.57,199.56 -1.2,4.26 -1.25,8.7 -0.34,30.49 24.31,45.69 14.59,8.99 31.79,4.9 4.39,-1.05 7.94,-1.43 13.93,-1.49 26.47,-7.34 8.26,-3.86 17.26,-10.08 14.84,-10.25 25.91,-24.79 a 0.34,0.34 0 0 1 0.55,0.01 q 9.5,13.55 22.63,22.66 23.85,16.53 53.14,21.88 8.36,1.53 16.34,1.47 6.13,-0.03 16.31,-0.99 33.96,-3.21 62.41,-23.17 2,-1.4 3.23,-3.11 0.92,-1.29 0.98,-1.36 10.31,-13.12 20.77,-26.57 0.62,-0.8 0.95,-1.76 9.89,-29.02 -0.04,-55.79 -3.14,-8.45 -9.25,-17.67 -9.07,-13.68 -21.64,-26.11 -24.16,-23.9 -52.52,-55.03 -6.24,-6.85 -8.61,-11.51 -3.34,-6.56 -4.45,-13.91 -0.76,-5.06 0.48,-9.41 1.35,-4.7 4.14,-8.68 3.72,-5.29 8.53,-9.11 5.12,-4.08 11.68,-5.23 14.32,-2.5 26.88,4 2.52,1.31 4.28,3.94 2.45,3.66 5.19,7.11 5.3,6.71 2.65,14.95 -3.73,11.6 -3.43,21.19 0.5,15.88 14.18,21.44 4.61,1.87 10.59,2.13 6.07,0.26 10.68,-0.46 6.46,-1.02 11.61,-4.67 11.66,-8.27 13.75,-22.62 0.25,-1.72 0.29,-5.65 0.03,-1.89 0.14,-3.79 0.13,-2.25 -0.04,-3.76 -1.99,-17.34 -17.63,-25.36 -1.48,-0.76 0.19,-0.76 h 58.84 a 0.4,0.41 6.8 0 1 0.39,0.5 q -35.29,144.25 -70.68,287.94 -2.42,9.82 -7.66,22.22 -3.6,8.54 -7.29,13.45 -4.66,6.19 -10.89,11.01 -8.98,6.95 -18.71,12.82 -9.15,5.52 -19.89,5.54 -4.36,0.01 -8.06,-2.25 -9.45,-5.79 -6.38,-16.17 1.82,-6.15 6.69,-11.49 5.2,-5.7 5.66,-6.42 3.23,-5.05 3.6,-11.01 0.36,-5.8 -2.23,-10.94 -3.82,-7.57 -12.28,-10.95 -5.54,-2.21 -12.01,-2.67 -25.22,-1.8 -36.43,19.48 -2.63,5.01 -4.05,11.48 -1.35,6.15 -0.36,11.98 1.96,11.54 9.26,21.07 5.98,7.8 13.91,13.17 7.46,5.05 17.36,7.3 16.53,3.76 32.51,0.13 31.08,-7.07 57.8,-26.64 6.57,-4.81 13.02,-11.7 17.71,-18.91 32.77,-39.99 4.57,-6.4 8.36,-13.94 25.66,-51.01 43.79,-105.19 14.2,-42.47 25.47,-85.8 10.73,-41.27 21.89,-82.56 a 0.5,0.5 0 0 1 0.48,-0.37 q 82.48,0 164.98,0 1.26,0 1.75,0.29 z"
     id="path332" />
</svg>
